# xmcd
#
# Track frame offsets: 
#        150
#        9022
#        19498
#        30331
#        44029
#        57783
#        71265
#        84265
#        95360
#        104678
#        117639
#        130396
#        141023
#        150716
#        160585
#        174070
#        185019
#        194369
#        205023
#        214291
#        225095
#        236311
#        245573
#        257377
#
# Disc length: 3552 seconds
#
# Revision: 1
# Processed by: cddbd v1.5.2PL0 Copyright (c) Steve Scherf et al.
# Submitted via: ExactAudioCopy v0.99pb5
#
DISCID=340dde18
DTITLE=Various Artist - Sounds Of The Unexpected: Weird and Wacky Instrumentals
DTITLE=From Pop's Final Frontiers
DYEAR=2017
DGENRE=Rock and Roll
TTITLE0=Jan Davis - Watusi Zombie
TTITLE1=Felix and His Fabulous Cats - Savage Girl
TTITLE2=Andre Brasseur and His Multi-Sound Organ - Mad Train
TTITLE3=The Atlantics - War Of The Worlds
TTITLE4=Timmy Thomas - Funky Me
TTITLE5=Gabor Szabo - Caravan
TTITLE6=The Tornados - Hot Pot
TTITLE7=Bo Diddley - Aztec
TTITLE8=Forbidden Five - R.F.D. Rangoon
TTITLE9=Big Walter and The Thunderbirds - Watusie Freeze (Part 1)
TTITLE10=The 101 Strings - Flameout
TTITLE11=Leonard Nimoy - Music To Watch Space Girls By
TTITLE12=The Imps - Uh-Oh
TTITLE13=Ray Cathode - Waltz In Orbit
TTITLE14=Jean Jacques Perrey - Moog Indigo
TTITLE15=The Astros - Space Walk
TTITLE16=The Martinis - Hung Over
TTITLE17=Ray Ellis and His Orchestra - The Sheik
TTITLE18=Preston Epps - B'wana Bongos
TTITLE19=The Upsetters - Long Sentence
TTITLE20=Travis Wammack - It's Karate Time
TTITLE21=The Ventures - Zocko
TTITLE22=Martin Denny - Misirlou
TTITLE23=The Zanies - Russian Roulette
EXTD=
EXTT0=
EXTT1=
EXTT2=
EXTT3=
EXTT4=
EXTT5=
EXTT6=
EXTT7=
EXTT8=
EXTT9=
EXTT10=
EXTT11=
EXTT12=
EXTT13=
EXTT14=
EXTT15=
EXTT16=
EXTT17=
EXTT18=
EXTT19=
EXTT20=
EXTT21=
EXTT22=
EXTT23=
PLAYORDER=
